<?xml version="1.0" encoding="UTF-8"?>
<svg version="1.1" xmlns="http://www.w3.org/2000/svg" width="320" height="320">
<path d="M0 0 C105.6 0 211.2 0 320 0 C320 105.6 320 211.2 320 320 C214.4 320 108.8 320 0 320 C0 214.4 0 108.8 0 0 Z " fill="#FEFEFD" transform="translate(0,0)"/>
<path d="M0 0 C1.633255 1.2006073 1.633255 1.2006073 3 3 C3.23722839 5.39253235 3.23722839 5.39253235 3.05151367 8.2590332 C2.99384323 9.33478104 2.93617279 10.41052887 2.87675476 11.51887512 C2.80785538 12.68440414 2.73895599 13.84993317 2.66796875 15.05078125 C2.58785688 17.52909398 2.51451143 20.00763292 2.44726562 22.48632812 C2.33490257 26.39357581 2.18951084 30.2826238 1.92700195 34.18286133 C1.03688429 46.83810264 1.03688429 46.83810264 4 59 C9.66782001 65.29935642 17.45609086 68.56374809 25.14517212 71.78097534 C28.61487945 73.26255636 31.68318955 75.02782029 34.890625 77.0078125 C37.65640374 78.61674635 40.42252093 80.22505469 43.19042969 81.83032227 C48.1028303 84.68868635 52.98142237 87.58797416 57.8125 90.58203125 C58.72999023 91.14712402 59.64748047 91.7122168 60.59277344 92.29443359 C62.32150878 93.36337781 64.04392778 94.44262844 65.75878906 95.53369141 C66.52416992 96.00597168 67.28955078 96.47825195 68.078125 96.96484375 C68.74231445 97.3837085 69.40650391 97.80257324 70.09082031 98.23413086 C72.58177493 99.23337953 73.50697705 98.96251812 76 98 C77.91203437 97.0494498 79.79752036 96.04484748 81.6640625 95.0078125 C83.3354126 94.08077515 83.3354126 94.08077515 85.04052734 93.13500977 C86.23542943 92.46514539 87.43025214 91.79513941 88.625 91.125 C89.84451353 90.44644284 91.06407762 89.76797656 92.28369141 89.08959961 C100.17948413 84.67918984 107.96220895 80.10847302 115.52978516 75.15087891 C121.85669347 71.11424012 121.85669347 71.11424012 126 72 C127.61491394 73.14878845 127.61491394 73.14878845 129 75 C129.3742218 77.73902893 129.3742218 77.73902893 129.37231445 81.09204102 C129.37854324 82.34666641 129.38477203 83.60129181 129.39118958 84.89393616 C129.38250242 86.26393023 129.37318454 87.63392043 129.36328125 89.00390625 C129.36276262 90.40730285 129.36328042 91.81070019 129.36479187 93.21409607 C129.36470218 96.1538275 129.35427871 99.09328449 129.33618164 102.03295898 C129.31347342 105.80496748 129.31295439 109.5765757 129.31969929 113.34863377 C129.32303694 116.24565706 129.31641344 119.14258872 129.30657005 122.03959465 C129.30271578 123.43068907 129.30157078 124.82179368 129.3031559 126.21289253 C129.30352583 128.15440273 129.28944555 130.0958996 129.2746582 132.03735352 C129.27005081 133.14305191 129.26544342 134.24875031 129.26069641 135.38795471 C129 138 129 138 127 140 C121.81161316 140.48558774 118.73308411 139.76435541 114.296875 137.10546875 C113.24266357 136.48414063 112.18845215 135.8628125 111.10229492 135.22265625 C109.44290894 134.21525391 109.44290894 134.21525391 107.75 133.1875 C106.59515391 132.50352215 105.43929971 131.82124372 104.2824707 131.140625 C99.84194308 128.52157509 95.42586548 125.86279673 91.01513672 123.19384766 C89.22509578 122.11148998 87.43214767 121.03391939 85.63574219 119.9621582 C84.04083805 119.00963718 82.45372455 118.04390911 80.87597656 117.06323242 C80.16795898 116.64017822 79.45994141 116.21712402 78.73046875 115.78125 C78.12614014 115.41064453 77.52181152 115.04003906 76.89916992 114.65820312 C74.24333092 113.73775809 72.67186676 114.19375873 70 115 C67.62131817 116.13102846 67.62131817 116.13102846 65.24609375 117.59765625 C63.86139893 118.4172583 63.86139893 118.4172583 62.44873047 119.25341797 C61.45502441 119.85041504 60.46131836 120.44741211 59.4375 121.0625 C57.28330221 122.33850682 55.12832106 123.61319185 52.97265625 124.88671875 C51.83973145 125.55751465 50.70680664 126.22831055 49.53955078 126.91943359 C43.52140499 130.4681891 37.44564125 133.91713146 31.375 137.375 C30.25150146 138.01574463 29.12800293 138.65648926 27.97045898 139.31665039 C26.32605835 140.25432251 26.32605835 140.25432251 24.6484375 141.2109375 C23.57279541 141.86006104 22.49715332 142.50918457 21.38891602 143.17797852 C18.80614056 144.56658547 16.83146494 145.4178033 14.09350586 146.24194336 C9.88220387 147.68516473 6.46430862 149.14193901 4 153 C1.70088413 161.63583588 2.44738154 170.94993388 2.75 179.79748535 C2.89427565 184.44896606 2.92814575 189.10273269 2.97331238 193.75602722 C3.00368649 196.22932592 3.05633559 198.70247 3.133255 201.17475891 C3.15864853 202.28989365 3.18404205 203.40502838 3.21020508 204.55395508 C3.25689079 206.02666618 3.25689079 206.02666618 3.30451965 207.52912903 C3 210 3 210 1.67436218 211.835495 C0 213 0 213 -3 213.078125 C-8.55951651 211.99064635 -13.2349748 208.66161705 -18 205.75 C-20.12916187 204.4748136 -22.25940023 203.20142316 -24.390625 201.9296875 C-26.02161133 200.95273926 -26.02161133 200.95273926 -27.68554688 199.95605469 C-33.94502826 196.26196476 -40.31442925 192.75839633 -46.6875 189.26464844 C-48.04101562 188.51103027 -48.04101562 188.51103027 -49.421875 187.7421875 C-50.60668457 187.09032471 -50.60668457 187.09032471 -51.81542969 186.42529297 C-54.33489376 184.78150316 -56.1866134 183.41981482 -58 181 C-58.03808594 177.95166016 -58.03808594 177.95166016 -57 175 C-55.01660156 173.22412109 -55.01660156 173.22412109 -52.390625 171.7734375 C-51.41762451 171.22204102 -50.44462402 170.67064453 -49.44213867 170.10253906 C-48.38873291 169.53245117 -47.33532715 168.96236328 -46.25 168.375 C-45.17919189 167.77397461 -44.10838379 167.17294922 -43.00512695 166.55371094 C-40.78154036 165.30668072 -38.5533443 164.06783694 -36.32080078 162.83691406 C-32.1738321 160.54300196 -28.06085693 158.19265045 -23.95019531 155.83447266 C-20.60210482 153.91426169 -17.24528444 152.00955979 -13.88745117 150.10644531 C-12.22212251 149.13021074 -10.60617035 148.07078023 -9 147 C-8.71359842 144.33769967 -8.62160621 141.90883447 -8.65942383 139.24560547 C-8.65898575 138.44552063 -8.65854767 137.64543579 -8.65809631 136.82110596 C-8.66019077 134.16955382 -8.68355229 131.51862953 -8.70703125 128.8671875 C-8.71262488 127.03158921 -8.71689608 125.19598645 -8.71989441 123.36038208 C-8.73136156 118.52365809 -8.76084473 113.68720337 -8.79400635 108.85058594 C-8.82466702 103.91735477 -8.83839117 98.98408019 -8.85351562 94.05078125 C-8.88571271 84.36706904 -8.93693155 74.68355689 -9 65 C-9.79550766 64.5457515 -10.59101532 64.09150299 -11.41062927 63.62348938 C-14.41057951 61.91030818 -17.41040123 60.19690235 -20.41014099 58.48335266 C-21.69937723 57.74695723 -22.98866211 57.01064696 -24.27799988 56.27442932 C-31.88395688 51.93130907 -39.48477952 47.57977877 -47.0625 43.1875 C-47.73518921 42.80049927 -48.40787842 42.41349854 -49.10095215 42.01477051 C-54.96449806 38.57878538 -54.96449806 38.57878538 -57 36 C-57.5 33.5625 -57.5 33.5625 -57 31 C-53.62787146 27.96904884 -49.99241024 25.71975986 -46.0546875 23.49609375 C-45.49118088 23.17596817 -44.92767426 22.85584259 -44.34709167 22.52601624 C-42.5254416 21.49223922 -40.70042322 20.46459754 -38.875 19.4375 C-36.34937415 18.01067875 -33.82498476 16.58167945 -31.30078125 15.15234375 C-30.67600388 14.79913055 -30.0512265 14.44591736 -29.40751648 14.08200073 C-25.61368388 11.9322607 -21.84921202 9.74025054 -18.10546875 7.50390625 C-17.24260254 6.99093994 -16.37973633 6.47797363 -15.49072266 5.94946289 C-13.91360761 5.00804604 -12.34133563 4.05845037 -10.77490234 3.09936523 C-4.07979589 -0.87580592 -4.07979589 -0.87580592 0 0 Z " fill="#EF8034" transform="translate(136,54)"/>
<path d="M0 0 C2.51258964 1.26672669 4.81280372 2.57373047 7.1875 4.0625 C8.69031725 4.9770523 10.19430567 5.88968179 11.69921875 6.80078125 C12.94711182 7.5599585 12.94711182 7.5599585 14.22021484 8.33447266 C20.69167417 12.2118919 27.2706406 15.90969908 33.82495117 19.64477539 C36.89713951 21.40742971 39.95222955 23.19550688 43 25 C43.9178125 25.53173828 44.835625 26.06347656 45.78125 26.61132812 C46.60625 27.11599609 47.43125 27.62066406 48.28125 28.140625 C49.00376953 28.57407227 49.72628906 29.00751953 50.47070312 29.45410156 C52 31 52 31 52.32714844 33.55126953 C51.8671935 36.99406653 50.71762353 37.85495753 48 40 C45.479521 41.5802045 42.87600181 42.97896003 40.25 44.375 C31.43977653 49.15534833 22.78412911 54.17541413 14.14941406 59.26513672 C-0.31058446 67.76044576 -0.31058446 67.76044576 -5 67 C-6.62026978 65.84484863 -6.62026978 65.84484863 -8 64 C-8.38095093 61.34362793 -8.38095093 61.34362793 -8.38818359 58.10742188 C-8.39764008 56.89606567 -8.40709656 55.68470947 -8.4168396 54.43664551 C-8.41076691 53.12723999 -8.40469421 51.81783447 -8.3984375 50.46875 C-8.40045851 49.11258793 -8.40337018 47.75642691 -8.40713501 46.40026855 C-8.41155716 43.55889533 -8.40513123 40.71780515 -8.39111328 37.87646484 C-8.37402097 34.23447897 -8.3838628 30.5931563 -8.40183067 26.95119476 C-8.41267175 24.15105188 -8.40922079 21.3510662 -8.4014473 18.55091858 C-8.39847298 16.5550595 -8.4075834 14.55919432 -8.4168396 12.56335449 C-8.40738312 11.35199829 -8.39792664 10.14064209 -8.38818359 8.89257812 C-8.38579681 7.82463013 -8.38341003 6.75668213 -8.38095093 5.65637207 C-8 3 -8 3 -6.6156311 1.15930176 C-4.19785445 -0.57558235 -2.93776795 -0.46954424 0 0 Z " fill="#EC6C41" transform="translate(62,127)"/>
<path d="M0 0 C3.90716833 1.13102241 7.09191126 2.94001103 10.515625 5.0703125 C12.00676886 5.97437985 13.49903612 6.87659587 14.9921875 7.77734375 C16.2301709 8.52685303 16.2301709 8.52685303 17.49316406 9.29150391 C20.61382998 11.15302125 23.76031695 12.96463361 26.9140625 14.76953125 C27.48898438 15.09856445 28.06390625 15.42759766 28.65625 15.76660156 C31.52441739 17.40727018 34.39450111 19.04444032 37.26660156 20.67822266 C52.80231114 29.58432804 52.80231114 29.58432804 54.265625 33.8828125 C51.59322855 42.06702664 37.8482343 46.71039736 30.578125 50.8203125 C28.79342755 51.83366386 27.0092612 52.84794315 25.22531128 53.86260986 C24.03881576 54.53596206 22.85109372 55.20715774 21.66213989 55.87615967 C18.5679274 57.6197461 15.50113717 59.39653937 12.46240234 61.23535156 C11.83955856 61.6066922 11.21671478 61.97803284 10.57499695 62.36062622 C8.84838974 63.3920183 7.12938082 64.43609972 5.41088867 65.48095703 C2.01631327 67.06138576 -0.0389461 67.41167755 -3.734375 66.9453125 C-6.43324385 64.24644365 -5.99304715 62.84921636 -6.0090332 59.07446289 C-6.02333122 57.22728416 -6.02333122 57.22728416 -6.03791809 55.3427887 C-6.03765667 53.99284843 -6.03671964 52.64290814 -6.03515625 51.29296875 C-6.03904199 49.91295746 -6.04337641 48.53294737 -6.04814148 47.15293884 C-6.05560915 44.25857672 -6.05530864 41.36433656 -6.05004883 38.4699707 C-6.04425504 34.75961012 -6.06117969 31.04974887 -6.0843935 27.33947086 C-6.09912149 24.48873472 -6.10000383 21.63811906 -6.09688377 18.78735161 C-6.09739752 17.41939747 -6.10264527 16.05143668 -6.11269569 14.68351936 C-6.12502242 12.7709038 -6.116339 10.85818759 -6.10668945 8.94555664 C-6.10731888 7.85682755 -6.1079483 6.76809845 -6.1085968 5.64637756 C-5.734375 2.9453125 -5.734375 2.9453125 -4.38200378 1.06687927 C-2.734375 -0.0546875 -2.734375 -0.0546875 0 0 Z " fill="#F18A2D" transform="translate(185.734375,199.0546875)"/>
<path d="M0 0 C3.30760461 0.84634561 5.71939941 2.00017391 8.65625 3.72949219 C10.21956055 4.64081909 10.21956055 4.64081909 11.81445312 5.57055664 C12.91724609 6.22628662 14.02003906 6.8820166 15.15625 7.55761719 C16.30619247 8.23310401 17.45658892 8.90781853 18.60742188 9.58178711 C20.9640944 10.96412299 23.31734998 12.3520247 25.66796875 13.74462891 C28.99998736 15.71789403 32.34274856 17.67240794 35.6875 19.62402344 C37.67740863 20.78883248 39.66700771 21.95417055 41.65625 23.12011719 C42.58695313 23.66442383 43.51765625 24.20873047 44.4765625 24.76953125 C45.32992187 25.27323242 46.18328125 25.77693359 47.0625 26.29589844 C47.80822266 26.73458252 48.55394531 27.1732666 49.32226562 27.62524414 C52.05615247 29.38778594 53.04288818 30.3541699 53.84375 33.55761719 C53.15625 36.80761719 53.15625 36.80761719 51.54223633 38.20019531 C45.21227788 42.23434698 38.73174424 45.93905139 32.15625 49.55761719 C22.98186569 54.61926498 22.98186569 54.61926498 13.95703125 59.94042969 C13.18939453 60.40739258 12.42175781 60.87435547 11.63085938 61.35546875 C10.23325792 62.21334607 8.84208222 63.08182101 7.45898438 63.96289062 C3.54635587 66.35891755 0.75321924 67.4672116 -3.84375 66.80761719 C-6.56098032 64.09038687 -6.10260728 62.63140799 -6.1184082 58.82910156 C-6.12794022 57.57440063 -6.13747223 56.31969971 -6.14729309 55.02697754 C-6.1470317 53.65177381 -6.14609481 52.27657006 -6.14453125 50.90136719 C-6.14841654 49.49654005 -6.15275086 48.09171408 -6.15751648 46.68688965 C-6.16498354 43.74125359 -6.1646837 40.79573738 -6.15942383 37.85009766 C-6.15362463 34.07014023 -6.1705681 30.29067208 -6.1937685 26.51079559 C-6.20847927 23.60948811 -6.20938128 20.70829923 -6.20625877 17.80696106 C-6.20677321 16.41306081 -6.21203375 15.01915413 -6.22207069 13.62528992 C-6.23436667 11.67894203 -6.2257269 9.73249556 -6.21606445 7.78613281 C-6.21669388 6.67741821 -6.2173233 5.56870361 -6.2179718 4.4263916 C-6.09447861 3.56219604 -5.97098541 2.69800049 -5.84375 1.80761719 C-2.84375 -0.19238281 -2.84375 -0.19238281 0 0 Z " fill="#F18A2D" transform="translate(185.84375,54.1923828125)"/>
<path d="M0 0 C3.86559336 1.54623734 7.14997918 3.1199514 10.734375 5.16796875 C12.41515137 6.1266687 12.41515137 6.1266687 14.12988281 7.10473633 C15.33686138 7.79851644 16.5435611 8.49278187 17.75 9.1875 C18.36016968 9.53815521 18.97033936 9.88881042 19.59899902 10.25009155 C23.43132269 12.45372138 27.25788805 14.66712191 31.08105469 16.88659668 C32.97222973 17.98388724 34.86495526 19.07846609 36.7578125 20.17285156 C40.26477466 22.20334649 43.75824243 24.25596572 47.25 26.3125 C48.33249023 26.93987061 49.41498047 27.56724121 50.53027344 28.21362305 C51.51543945 28.79926025 52.50060547 29.38489746 53.515625 29.98828125 C54.38477539 30.49915283 55.25392578 31.01002441 56.14941406 31.53637695 C57.0654541 32.26087036 57.0654541 32.26087036 58 33 C58 33.99 58 34.98 58 36 C56.99755249 36.5576001 56.99755249 36.5576001 55.97485352 37.12646484 C39.81239293 46.10838183 39.81239293 46.10838183 23.8125 55.375 C23.14669922 55.76913086 22.48089844 56.16326172 21.79492188 56.56933594 C20.50317795 57.33450501 19.21150891 58.0998005 17.91992188 58.86523438 C14.64360522 60.80169417 11.35721143 62.72002521 8.0625 64.625 C6.37833984 65.60339844 6.37833984 65.60339844 4.66015625 66.6015625 C2 68 2 68 0 68 C0 45.56 0 23.12 0 0 Z " fill="#FEFDFA" transform="translate(139,126)"/>
<path d="M0 0 C0 12.54 0 25.08 0 38 C-16.48840206 29.75579897 -16.48840206 29.75579897 -24.375 25.1875 C-25.21804687 24.71119141 -26.06109375 24.23488281 -26.9296875 23.74414062 C-27.72375 23.28587891 -28.5178125 22.82761719 -29.3359375 22.35546875 C-30.04282715 21.94965576 -30.7497168 21.54384277 -31.47802734 21.12573242 C-31.98027832 20.75424072 -32.4825293 20.38274902 -33 20 C-33 19.34 -33 18.68 -33 18 C-32.16750732 17.52578613 -31.33501465 17.05157227 -30.47729492 16.56298828 C-27.38487116 14.80106568 -24.29326594 13.03771113 -21.2019043 11.27392578 C-19.86456176 10.51116563 -18.52699841 9.7487925 -17.18920898 8.98681641 C-15.26487796 7.89066944 -13.34134879 6.79312707 -11.41796875 5.6953125 C-10.5224958 5.18582565 -10.5224958 5.18582565 -9.6089325 4.66604614 C-1.44280138 0 -1.44280138 0 0 0 Z " fill="#FEFBF8" transform="translate(128,214)"/>
<path d="M0 0 C0 12.21 0 24.42 0 37 C-4.51356971 35.49547676 -7.72758437 34.18225 -11.73046875 31.84765625 C-13.30538086 30.93016602 -13.30538086 30.93016602 -14.91210938 29.99414062 C-15.99298828 29.35669922 -17.07386719 28.71925781 -18.1875 28.0625 C-19.27998047 27.42892578 -20.37246094 26.79535156 -21.49804688 26.14257812 C-30.32098283 20.97276168 -30.32098283 20.97276168 -33 18 C-25.66551168 13.4334838 -18.29142887 8.93220484 -10.875 4.5 C-9.77393921 3.83218506 -9.77393921 3.83218506 -8.65063477 3.15087891 C-7.61314087 2.5347876 -7.61314087 2.5347876 -6.5546875 1.90625 C-5.94093262 1.53822266 -5.32717773 1.17019531 -4.69482422 0.79101562 C-3 0 -3 0 0 0 Z " fill="#FEFCF6" transform="translate(254,142)"/>
<path d="M0 0 C3.8653525 1.546141 7.05086065 3.09279649 10.59765625 5.1875 C11.64630859 5.80367187 12.69496094 6.41984375 13.77539062 7.0546875 C14.86013672 7.69664062 15.94488281 8.33859375 17.0625 9 C19.21940877 10.27192489 21.37693569 11.54280225 23.53515625 12.8125 C24.487854 13.37582031 25.44055176 13.93914062 26.42211914 14.51953125 C28.58537415 15.7618817 30.75450549 16.91576299 33 18 C33 18.66 33 19.32 33 20 C32.43796875 20.30550781 31.8759375 20.61101562 31.296875 20.92578125 C30.45640625 21.38339844 29.6159375 21.84101563 28.75 22.3125 C27.27466797 23.11494141 27.27466797 23.11494141 25.76953125 23.93359375 C22.7995801 25.55559941 19.84241068 27.1998214 16.88671875 28.84765625 C15.99049805 29.34547607 15.09427734 29.8432959 14.17089844 30.35620117 C12.35587048 31.36471215 10.54269808 32.37657022 8.73144531 33.3918457 C7.8906543 33.8580835 7.04986328 34.32432129 6.18359375 34.8046875 C5.04748657 35.43866455 5.04748657 35.43866455 3.88842773 36.08544922 C2 37 2 37 0 37 C0 24.79 0 12.58 0 0 Z " fill="#FEFDF9" transform="translate(190,214)"/>
<path d="M0 0 C5.7884088 2.31536352 11.0418217 5.29714235 16.43066406 8.39477539 C18.25349712 9.43950432 20.08354823 10.47075689 21.9140625 11.50195312 C23.07338433 12.16585068 24.23225498 12.83053687 25.390625 13.49609375 C26.9689209 14.39606079 26.9689209 14.39606079 28.57910156 15.31420898 C31 17 31 17 32 20 C31.26885986 20.40839111 30.53771973 20.81678223 29.78442383 21.23754883 C27.05376892 22.76329278 24.32350786 24.28973854 21.59350586 25.81665039 C19.83802811 26.79822596 18.08210323 27.77900173 16.32617188 28.75976562 C15.21435547 29.38173828 14.10253906 30.00371094 12.95703125 30.64453125 C11.93585205 31.21534424 10.91467285 31.78615723 9.86254883 32.37426758 C7.97082995 33.44863483 6.09973743 34.56025405 4.25268555 35.7097168 C2 37 2 37 0 37 C0 24.79 0 12.58 0 0 Z " fill="#FEFCF8" transform="translate(190,69)"/>
<path d="M0 0 C0 12.21 0 24.42 0 37 C-6.75483551 34.74838816 -6.75483551 34.74838816 -9.98828125 32.828125 C-10.69090088 32.41353027 -11.39352051 31.99893555 -12.11743164 31.57177734 C-12.8418042 31.13559082 -13.56617676 30.6994043 -14.3125 30.25 C-15.06072021 29.80479004 -15.80894043 29.35958008 -16.57983398 28.90087891 C-21.82734966 25.7588655 -26.98992242 22.51133642 -32 19 C-28.91880849 15.60877207 -25.74300949 13.53202624 -21.73828125 11.328125 C-21.1470195 11.00084412 -20.55575775 10.67356323 -19.94657898 10.33636475 C-18.70532047 9.65090021 -17.46226793 8.96867527 -16.2175293 8.28955078 C-14.30448227 7.24562482 -12.3969911 6.19208301 -10.49023438 5.13671875 C-1.1669124 0 -1.1669124 0 0 0 Z " fill="#FEFAF5" transform="translate(128,69)"/>
<path d="M0 0 C12.375 6.75 12.375 6.75 16.66796875 9.2109375 C17.57998047 9.73300781 18.49199219 10.25507813 19.43164062 10.79296875 C20.34107422 11.31503906 21.25050781 11.83710938 22.1875 12.375 C23.13947266 12.92027344 24.09144531 13.46554688 25.07226562 14.02734375 C27.38208832 15.35055876 29.6913239 16.67478584 32 18 C32 18.66 32 19.32 32 20 C31.26885986 20.40839111 30.53771973 20.81678223 29.78442383 21.23754883 C27.05376892 22.76329278 24.32350786 24.28973854 21.59350586 25.81665039 C19.83802811 26.79822596 18.08210323 27.77900173 16.32617188 28.75976562 C15.21435547 29.38173828 14.10253906 30.00371094 12.95703125 30.64453125 C11.93585205 31.21534424 10.91467285 31.78615723 9.86254883 32.37426758 C7.97082995 33.44863483 6.09973743 34.56025405 4.25268555 35.7097168 C2 37 2 37 0 37 C0 24.79 0 12.58 0 0 Z " fill="#FEF9F5" transform="translate(65,142)"/>
<path d="M0 0 C0.66 0 1.32 0 2 0 C2 20.46 2 40.92 2 62 C-1 59 -1 59 -1.36749268 56.48875427 C-1.36202423 54.98889732 -1.36202423 54.98889732 -1.35644531 53.45874023 C-1.35944641 52.32423935 -1.36244751 51.18973846 -1.36553955 50.02085876 C-1.35319275 48.79581131 -1.34084595 47.57076385 -1.328125 46.30859375 C-1.32625183 45.05240738 -1.32437866 43.79622101 -1.32244873 42.50196838 C-1.31572091 39.84451116 -1.30343427 37.18781748 -1.28125 34.53051758 C-1.25293896 31.12178684 -1.24203528 27.71329481 -1.2375679 24.30445766 C-1.23241621 21.0558067 -1.21787718 17.80721338 -1.203125 14.55859375 C-1.19887512 13.33152206 -1.19462524 12.10445038 -1.19024658 10.8401947 C-1.18063904 9.70884598 -1.17103149 8.57749725 -1.16113281 7.41186523 C-1.15430481 6.4127562 -1.14747681 5.41364716 -1.14044189 4.38426208 C-1 2 -1 2 0 0 Z " fill="#FBE7D2" transform="translate(178,202)"/>
<path d="M0 0 C2.475 0.99 2.475 0.99 5 2 C4.01 2.33 3.02 2.66 2 3 C2 23.46 2 43.92 2 65 C2.99 65 3.98 65 5 65 C5 64.34 5 63.68 5 63 C6.32 63.33 7.64 63.66 9 64 C2.25 68 2.25 68 0 68 C0 45.56 0 23.12 0 0 Z " fill="#FEEDD5" transform="translate(139,126)"/>
<path d="M0 0 C5.625 2.25 5.625 2.25 8 5 C6.35 5.33 4.7 5.66 3 6 C3 14.91 3 23.82 3 33 C4.65 33 6.3 33 8 33 C5.16604069 35.32789515 3.70488428 36.07377893 0 37 C0 24.79 0 12.58 0 0 Z " fill="#FEE7CC" transform="translate(190,214)"/>
<path d="M0 0 C2.475 0.99 2.475 0.99 5 2 C4.34 2.66 3.68 3.32 3 4 C2.62677573 7.10756015 2.62677573 7.10756015 2.5859375 10.7578125 C2.56657135 11.42086395 2.5472052 12.08391541 2.5272522 12.76705933 C2.46744046 14.88624177 2.42106612 17.0054785 2.375 19.125 C2.33682155 20.56122169 2.29776989 21.99742045 2.2578125 23.43359375 C2.16173875 26.95551936 2.07771358 30.47761608 2 34 C2.99 34 3.98 34 5 34 C5 33.34 5 32.68 5 32 C6.32 32.33 7.64 32.66 9 33 C2.25 37 2.25 37 0 37 C0 24.79 0 12.58 0 0 Z " fill="#FEE6CB" transform="translate(190,69)"/>
<path d="M0 0 C0 0.66 0 1.32 0 2 C-3 4 -3 4 -6 4 C-6 4.66 -6 5.32 -6 6 C-6.721875 6.2475 -7.44375 6.495 -8.1875 6.75 C-11.06933721 7.88321587 -11.06933721 7.88321587 -13.375 9.9375 C-15.66162697 11.73413548 -17.11049685 12.51422637 -19.75 13.5 C-23.03213525 14.65007397 -23.03213525 14.65007397 -24.1875 16.9375 C-24.16938807 19.15435363 -24.16938807 19.15435363 -22.4375 21.0625 C-19.77141269 23.1816976 -17.09415683 24.59356508 -14 26 C-14 26.66 -14 27.32 -14 28 C-18.97573431 26.24385848 -23.25619477 23.74380523 -27 20 C-26.95483398 17.10302734 -26.95483398 17.10302734 -26 14 C-23.71508789 12.03369141 -23.71508789 12.03369141 -20.72265625 10.3515625 C-19.65208984 9.73925781 -18.58152344 9.12695312 -17.47851562 8.49609375 C-15.78758789 7.56990234 -15.78758789 7.56990234 -14.0625 6.625 C-12.37737305 5.66400391 -12.37737305 5.66400391 -10.65820312 4.68359375 C-2.3545609 0 -2.3545609 0 0 0 Z " fill="#E27950" transform="translate(105,215)"/>
<path d="M0 0 C2.5 0.375 2.5 0.375 4.13496399 1.51570129 C6.1034563 4.19696038 5.86036055 6.19478794 5.84057617 9.4987793 C5.84034958 10.75986008 5.84012299 12.02094086 5.83988953 13.32023621 C5.82456963 14.69656732 5.80892164 16.07289482 5.79296875 17.44921875 C5.7873726 18.85740202 5.78310259 20.26559114 5.78010559 21.67378235 C5.76865818 25.37781944 5.73919235 29.0815029 5.70599365 32.78540039 C5.67529026 36.56586931 5.66159971 40.34639543 5.64648438 44.12695312 C5.61432216 51.54312986 5.56312755 58.95901536 5.5 66.375 C5.17 66.375 4.84 66.375 4.5 66.375 C4.17 45.585 3.84 24.795 3.5 3.375 C0.53 3.375 -2.44 3.375 -5.5 3.375 C-2.5 0.375 -2.5 0.375 0 0 Z " fill="#E49F44" transform="translate(259.5,125.625)"/>
<path d="M0 0 C0 12.54 0 25.08 0 38 C-1.65 37.34 -3.3 36.68 -5 36 C-3.02 35.505 -3.02 35.505 -1 35 C-1 24.44 -1 13.88 -1 3 C-2.32 2.67 -3.64 2.34 -5 2 C-2 0 -2 0 0 0 Z " fill="#FEF4E2" transform="translate(128,214)"/>
<path d="M0 0 C0 0.66 0 1.32 0 2 C-1.912712 3.2400457 -3.88212578 4.39336867 -5.875 5.5 C-10.22617378 7.86771159 -10.22617378 7.86771159 -14 11 C-14.64767793 13.57061311 -14.64767793 13.57061311 -15 16 C-15.66 15.67 -16.32 15.34 -17 15 C-17.3125 12.75 -17.3125 12.75 -17 10 C-13.36690917 6.24580614 -5.41390354 0 0 0 Z " fill="#DF764D" transform="translate(96,75)"/>
<path d="M0 0 C0.33 0.66 0.66 1.32 1 2 C-11.06835505 9.36980575 -11.06835505 9.36980575 -15 11 C-15.99 10.67 -16.98 10.34 -18 10 C-12.06 6.7 -6.12 3.4 0 0 Z " fill="#E79740" transform="translate(239,137)"/>
<path d="M0 0 C0.66 0.33 1.32 0.66 2 1 C-4.56454918 6.80122951 -4.56454918 6.80122951 -9 8 C-9.99 7.67 -10.98 7.34 -12 7 C-10.04754815 5.80285445 -8.08785003 4.61751926 -6.125 3.4375 C-5.03445312 2.77621094 -3.94390625 2.11492187 -2.8203125 1.43359375 C-1.88960937 0.96050781 -0.95890625 0.48742187 0 0 Z " fill="#E68649" transform="translate(153,186)"/>
<path d="M0 0 C3.7910119 1.44950455 7.3874638 3.15172566 11 5 C11 5.66 11 6.32 11 7 C9.68 7.33 8.36 7.66 7 8 C6.67 6.68 6.34 5.36 6 4 C5.01 4 4.02 4 3 4 C3 3.34 3 2.68 3 2 C2.01 2 1.02 2 0 2 C0 1.34 0 0.68 0 0 Z " fill="#FEEDCB" transform="translate(212,227)"/>
<path d="M0 0 C1.32 0.66 2.64 1.32 4 2 C4 2.66 4 3.32 4 4 C-2.75 8 -2.75 8 -5 8 C-5 7.34 -5 6.68 -5 6 C-4.01 6 -3.02 6 -2 6 C-2 5.34 -2 4.68 -2 4 C-1.01 4 -0.02 4 1 4 C0.67 2.68 0.34 1.36 0 0 Z " fill="#FEF3D4" transform="translate(218,85)"/>
<path d="M0 0 C0 0.66 0 1.32 0 2 C-0.99 2 -1.98 2 -3 2 C-3 2.66 -3 3.32 -3 4 C-6 6 -6 6 -8.1875 5.625 C-8.785625 5.41875 -9.38375 5.2125 -10 5 C-8.71186658 4.16121545 -7.41936744 3.32913217 -6.125 2.5 C-5.40570313 2.0359375 -4.68640625 1.571875 -3.9453125 1.09375 C-2 0 -2 0 0 0 Z " fill="#FEF1D1" transform="translate(248,145)"/>
<path d="M0 0 C1.32 0 2.64 0 4 0 C4 0.66 4 1.32 4 2 C5.32 2 6.64 2 8 2 C8.66 3.32 9.32 4.64 10 6 C6.40992874 4.66654496 3.20429093 3.1056769 0 1 C0 0.67 0 0.34 0 0 Z " fill="#FEEDCE" transform="translate(210,67)"/>
<path d="M0 0 C3.94120709 0.56302958 6.7508723 1.6791945 10 4 C10 4.66 10 5.32 10 6 C5.56909529 4.79157144 3.01887244 3.48331435 0 0 Z " fill="#E1774C" transform="translate(88,95)"/>
<path d="M0 0 C2.475 0.99 2.475 0.99 5 2 C5 2.99 5 3.98 5 5 C3.68 5.33 2.36 5.66 1 6 C1 5.34 1 4.68 1 4 C1.66 4 2.32 4 3 4 C3 3.34 3 2.68 3 2 C2.01 2 1.02 2 0 2 C0 1.34 0 0.68 0 0 Z " fill="#FEF0D3" transform="translate(192,157)"/>
<path d="M0 0 C0.66 0.33 1.32 0.66 2 1 C1.67 2.65 1.34 4.3 1 6 C-1.475 5.01 -1.475 5.01 -4 4 C-2.68 2.68 -1.36 1.36 0 0 Z " fill="#FEECC6" transform="translate(225,157)"/>
<path d="M0 0 C1.32 0 2.64 0 4 0 C4 0.66 4 1.32 4 2 C5.65 2.33 7.3 2.66 9 3 C9 3.66 9 4.32 9 5 C5.22454612 3.90931332 2.52956528 3.0916909 0 0 Z " fill="#FEEED1" transform="translate(220,73)"/>
</svg>
